<svg width="84" height="36" viewBox="0 0 84 36" fill="none" xmlns="http://www.w3.org/2000/svg">
  <g clipPath="url(#clip0_6112_2670)">
                                        <path d="M21.95 26.27L17.58 21.9V12.57C17.58 9.43 15.02 6.87 11.88 6.87C9.35997 6.87 7.20997 8.52 6.46997 10.79L3.89997 8.22L4.90997 7.21L3.69997 6L0.469971 9.23L1.67997 10.44L2.68997 9.43L6.18997 12.93V22.27C6.18997 25.41 8.74997 27.97 11.89 27.97C14.41 27.97 16.56 26.32 17.3 24.05L20.74 27.49L21.95 26.28V26.27ZM11.89 8.58C14.09 8.58 15.88 10.37 15.88 12.57V20.2L7.90997 12.23C8.07997 10.19 9.79997 8.58 11.89 8.58ZM11.89 26.25C9.68997 26.25 7.89997 24.46 7.89997 22.26V14.63L15.87 22.6C15.7 24.64 13.98 26.25 11.89 26.25Z" fill={getActiveHeader(scroll, hover, headerColor) ? "#2A3592" : "#fff"} />
                                        <path d="M83.24 7.95996H34.16V9.66996H39V12.16C38.21 11.54 37.23 11.19 36.22 11.19C33.75 11.19 31.73 13.2 31.73 15.68V21.33C31.73 23.8 33.74 25.82 36.22 25.82C37.23 25.82 38.21 25.47 39 24.85V26.34C37.92 26.7 37.18 27.71 37.18 28.87V31.48H38.89V28.87C38.89 28.34 39.32 27.91 39.85 27.91C40.38 27.91 40.81 28.34 40.81 28.87V31.19C40.81 32.72 39.56 33.97 38.03 33.97C36.5 33.97 35.25 32.72 35.25 31.19V28.58H33.54V31.19C33.54 33.66 35.55 35.68 38.03 35.68C40.51 35.68 42.52 33.67 42.52 31.19V28.87C42.52 27.71 41.78 26.71 40.7 26.34V9.66996H51.58V12.54C50.79 11.92 49.81 11.57 48.8 11.57H47.8C46.6 11.57 45.47 12.04 44.63 12.88C43.78 13.73 43.32 14.86 43.32 16.05V23.14C43.32 24.61 44.52 25.81 45.99 25.81C47.46 25.81 48.66 24.61 48.66 23.14V16.05C48.66 14.84 47.84 13.81 46.73 13.48C47.07 13.34 47.43 13.27 47.8 13.27H48.8C50.33 13.27 51.58 14.52 51.58 16.05V27.33H53.29V9.66996H56.62V27.34H58.33V9.66996H68.93V12.16C68.14 11.54 67.16 11.19 66.15 11.19C63.68 11.19 61.66 13.2 61.66 15.68V21.33C61.66 23.8 63.67 25.82 66.15 25.82C67.16 25.82 68.14 25.47 68.93 24.85V27.34H70.64V9.66996H78.81V11.59C78.33 11.33 77.8 11.19 77.24 11.19C75.43 11.19 73.96 12.66 73.96 14.47V23.36C73.96 25.61 75.79 27.44 78.04 27.44C80.29 27.44 82.12 25.61 82.12 23.36V20.22H80.41V23.36C80.41 24.67 79.34 25.74 78.03 25.74C76.72 25.74 75.65 24.67 75.65 23.36V14.47C75.65 13.61 76.35 12.9 77.22 12.9C78.09 12.9 78.79 13.6 78.79 14.47V14.75H80.46L80.5 14.51V9.66996H83.5V7.95996H83.22H83.24ZM66.16 12.9C67.69 12.9 68.94 14.15 68.94 15.68V21.33C68.94 22.86 67.69 24.11 66.16 24.11C64.63 24.11 63.38 22.86 63.38 21.33V15.68C63.38 14.15 64.63 12.9 66.16 12.9ZM36.22 12.9C37.75 12.9 39 14.15 39 15.68V20.08L33.62 14.7C34.03 13.62 35.05 12.9 36.22 12.9ZM36.22 24.11C34.69 24.11 33.44 22.86 33.44 21.33V16.93L38.82 22.31C38.41 23.39 37.39 24.11 36.22 24.11ZM46.96 23.15C46.96 23.68 46.53 24.11 46 24.11C45.47 24.11 45.04 23.68 45.04 23.15V16.06C45.04 15.53 45.47 15.1 46 15.1C46.53 15.1 46.96 15.53 46.96 16.06V23.15Z" fill='#2A3592' />
                                    </g>
                                    <defs>
                                        <clipPath id="clip0_6112_2670">
                                            <rect width="83.06" height="29.68" fill='#2A3592' transform="translate(0.469971 6)" />
                                        </clipPath>
                                    </defs>
                                </svg>